<svg width="15" height="14" viewBox="0 0 15 14" fill="none" xmlns="http://www.w3.org/2000/svg">
<path d="M14.547 1.70711C14.9375 1.31658 14.9375 0.683417 14.547 0.292893C14.1564 -0.0976311 13.5233 -0.0976311 13.1327 0.292893L7.83984 5.58579L2.54695 0.292893C2.15643 -0.0976311 1.52326 -0.0976311 1.13274 0.292893C0.742213 0.683417 0.742213 1.31658 1.13274 1.70711L6.42563 7L1.13274 12.2929C0.742213 12.6834 0.742213 13.3166 1.13274 13.7071C1.52326 14.0976 2.15643 14.0976 2.54695 13.7071L7.83984 8.41421L13.1327 13.7071C13.5233 14.0976 14.1564 14.0976 14.547 13.7071C14.9375 13.3166 14.9375 12.6834 14.547 12.2929L9.25406 7L14.547 1.70711Z" fill="#0A0A0A"/>
</svg>
