<svg width="28" height="28" viewBox="0 0 28 28" fill="none" xmlns="http://www.w3.org/2000/svg">
<path fill-rule="evenodd" clip-rule="evenodd" d="M3.33317 12.6667C3.33317 7.51209 7.51185 3.33341 12.6665 3.33341C17.8212 3.33341 21.9998 7.51209 21.9998 12.6667C21.9998 15.1819 21.005 17.4646 19.3873 19.143C19.3423 19.1778 19.2989 19.2158 19.2575 19.2571C19.2162 19.2985 19.1781 19.3419 19.1433 19.387C17.4649 21.005 15.1819 22.0001 12.6665 22.0001C7.51185 22.0001 3.33317 17.8214 3.33317 12.6667ZM20.1571 22.0423C18.1042 23.6847 15.5 24.6667 12.6665 24.6667C6.03909 24.6667 0.666504 19.2942 0.666504 12.6667C0.666504 6.03933 6.03909 0.666748 12.6665 0.666748C19.2939 0.666748 24.6665 6.03933 24.6665 12.6667C24.6665 15.4999 23.6847 18.1038 22.0427 20.1566L26.9432 25.0571C27.4639 25.5778 27.4639 26.4221 26.9432 26.9428C26.4225 27.4635 25.5782 27.4635 25.0575 26.9428L20.1571 22.0423Z" fill="#0A0A0A"/>
</svg>
