<svg width="20" height="24" viewBox="0 0 20 24" fill="none" xmlns="http://www.w3.org/2000/svg">
<path d="M9.99984 0C10.7362 0 11.3332 0.596954 11.3332 1.33333V22.6667C11.3332 23.403 10.7362 24 9.99984 24C9.26346 24 8.6665 23.403 8.6665 22.6667V1.33333C8.6665 0.596954 9.26346 0 9.99984 0Z" fill="#0A0A0A"/>
<path d="M17.9998 8C18.7362 8 19.3332 8.59695 19.3332 9.33333V22.6667C19.3332 23.403 18.7362 24 17.9998 24C17.2635 24 16.6665 23.403 16.6665 22.6667V9.33333C16.6665 8.59695 17.2635 8 17.9998 8Z" fill="#0A0A0A"/>
<path d="M3.33317 14.6667C3.33317 13.9303 2.73622 13.3333 1.99984 13.3333C1.26346 13.3333 0.666504 13.9303 0.666504 14.6667V22.6667C0.666504 23.403 1.26346 24 1.99984 24C2.73622 24 3.33317 23.403 3.33317 22.6667V14.6667Z" fill="#0A0A0A"/>
</svg>
