<svg width="20" height="20" viewBox="0 0 20 20" fill="none" xmlns="http://www.w3.org/2000/svg">
<path fill-rule="evenodd" clip-rule="evenodd" d="M5.42169 18.2583C6.86747 19.039 8.43373 19.4595 10.1807 19.4595C15.6024 19.4595 20 15.1351 20 9.72973C20 4.32433 15.6024 0 10.1807 0C4.75904 0 0.361446 4.32433 0.361446 9.72973C0.361446 11.5916 0.843373 13.3333 1.74699 14.7748L0 20L5.42169 18.2583ZM14.8443 11.7215C14.7989 11.7002 14.7502 11.6773 14.6987 11.6516C14.4576 11.5314 13.2529 10.9309 13.0722 10.8708C12.8312 10.8108 12.6505 10.8108 12.53 11.051C12.3493 11.2912 11.9276 11.8318 11.7469 12.012C11.6264 12.1921 11.4456 12.1921 11.2047 12.072C11.1647 12.0521 11.1098 12.0288 11.0419 12.0001C10.7005 11.8556 10.0307 11.5721 9.27697 10.8708C8.55408 10.2101 8.07215 9.48943 7.95167 9.24919C7.83119 9.00895 7.95167 8.88883 8.07215 8.76871C8.13239 8.70865 8.19263 8.63357 8.25287 8.5585C8.31312 8.48342 8.37336 8.40835 8.4336 8.34829C8.55408 8.22817 8.61432 8.10805 8.67456 7.92787C8.7348 7.74769 8.7348 7.62757 8.67456 7.50745C8.64257 7.44365 8.49162 7.07489 8.33002 6.68012C8.18736 6.33161 8.03641 5.96283 7.95167 5.76571C7.7877 5.32976 7.57414 5.33879 7.44597 5.34421C7.43287 5.34477 7.42067 5.34528 7.4095 5.34528H6.92757C6.74685 5.34528 6.50589 5.40534 6.26492 5.64558C6.02396 5.82577 5.42155 6.42637 5.42155 7.56751C5.42155 8.66806 6.12951 9.66778 6.34082 9.96616C6.36014 9.99345 6.37531 10.0149 6.3854 10.03C6.38909 10.0355 6.39414 10.0431 6.40052 10.0528C6.60258 10.3595 8.14593 12.702 10.4818 13.6336C12.5685 14.4455 12.8922 14.3571 13.1968 14.2739C13.2527 14.2586 13.3079 14.2435 13.3734 14.2342C13.795 14.1741 14.8191 13.6336 14.9999 13.093C15.2408 12.5525 15.2408 12.072 15.1806 11.9519C15.1332 11.8574 15.0114 11.8001 14.8443 11.7215Z" fill="#9AC45E"/>
</svg>
