<svg width="24" height="14" viewBox="0 0 24 14" fill="none" xmlns="http://www.w3.org/2000/svg">
<path d="M13.0718 14C4.87196 14 0.194878 8.74474 0 0H4.10743C4.24235 6.41842 7.27046 9.13714 9.66896 9.6977V0H13.5365V5.53553C15.9051 5.2973 18.3935 2.77477 19.233 0H23.1006C22.7842 1.43908 22.1537 2.80165 21.2483 4.0025C20.3429 5.20335 19.1823 6.21663 17.8389 6.97898C19.3384 7.67555 20.6629 8.6615 21.7249 9.87175C22.7869 11.082 23.5624 12.489 24 14H19.7427C19.3498 12.6876 18.5513 11.5128 17.4473 10.6228C16.3433 9.73284 14.9829 9.16727 13.5365 8.997V14H13.0718V14Z" fill="#0A0A0A"/>
</svg>
