<svg width="24" height="19" viewBox="0 0 24 19" fill="none" xmlns="http://www.w3.org/2000/svg">
<path d="M23.5057 2.97294C23.2289 1.81059 22.4184 0.894118 21.3904 0.581176C19.5123 0 11.9999 0 11.9999 0C11.9999 0 4.48763 0 2.60954 0.558824C1.60131 0.871765 0.771002 1.81059 0.494232 2.97294C0 5.09647 0 9.5 0 9.5C0 9.5 0 13.9259 0.494232 16.0271C0.771002 17.1894 1.58154 18.1059 2.60954 18.4188C4.50739 19 11.9999 19 11.9999 19C11.9999 19 19.5123 19 21.3904 18.4412C22.4184 18.1282 23.2289 17.2118 23.5057 16.0494C23.9999 13.9259 23.9999 9.52235 23.9999 9.52235C23.9999 9.52235 24.0197 5.09647 23.5057 2.97294ZM9.60787 13.5682V5.43176L15.855 9.5L9.60787 13.5682Z" fill="#0A0A0A"/>
</svg>
