<svg width="154" height="24" viewBox="0 0 154 24" fill="none" xmlns="http://www.w3.org/2000/svg">
<path d="M28.3304 23.6871H9.54779L18.6782 12.1567L9.65214 0.208862H28.3826L37.4608 12.1567L28.3304 23.6871ZM17.3739 19.8784H26.4521L32.5565 12.1567L26.4521 4.01756H17.2695L23.4782 12.1567L17.3739 19.8784Z" fill="#C2C2C2"/>
<path d="M2.97394 4.01846L0.10437 0.157593H4.8522L7.77394 4.01846H2.97394Z" fill="#C2C2C2"/>
<path d="M13.9826 12.1572L4.85217 23.6877H0L9.13043 12.105L5.89565 7.82678H10.6435L13.9826 12.1572Z" fill="#C2C2C2"/>
<path d="M50.9217 9.70451H48.8869V0.208862H50.9217V9.70451Z" fill="#C2C2C2"/>
<path d="M52.0174 0.208862H54.2087L56.7652 7.30451L59.3217 0.208862H61.513L57.8087 9.70451H55.7217L52.0174 0.208862Z" fill="#C2C2C2"/>
<path d="M64.5913 0.208862H66.7826L70.6434 9.70451H68.5565L67.8782 7.9306H63.5478L62.8174 9.70451H60.7304L64.5913 0.208862ZM67.2521 6.20886L65.9478 2.81756C65.8956 2.60886 65.7913 2.45234 65.7391 2.08712C65.6869 2.45234 65.5826 2.66104 65.5304 2.81756L64.2261 6.20886H67.2521Z" fill="#C2C2C2"/>
<path d="M71.7391 0.208862H73.6696L78.1044 6.41756C78.0522 6.00017 78.0522 5.5306 78.0522 5.11321V0.208862H80.087V9.70451H78.1565L73.7217 3.49582C73.7739 3.91321 73.7739 4.38278 73.7739 4.80017V9.70451H71.7391V0.208862Z" fill="#C2C2C2"/>
<path d="M93.6522 4.95669C93.6522 7.72191 92.0348 9.70451 88.6957 9.70451H85.1478V0.208862H88.6957C92.0348 0.208862 93.6522 2.19147 93.6522 4.95669ZM88.6435 1.98278H87.1304V7.87843H88.6435C90.5217 7.87843 91.5652 6.88712 91.5652 4.90451C91.5652 2.92191 90.5217 1.98278 88.6435 1.98278Z" fill="#C2C2C2"/>
<path d="M101.843 1.98278H97.2V4.01756H101.426V5.79147H97.2V7.9306H101.948V9.70451H95.1652V0.208862H101.843V1.98278Z" fill="#C2C2C2"/>
<path d="M103.565 0.208862H107.478C109.304 0.208862 111.235 0.887123 111.235 3.28712C111.235 4.90451 110.296 5.7393 109.148 6.10451L111.965 9.70451H109.617L107.061 6.36538H105.548V9.70451H103.513V0.208862H103.565ZM107.53 4.64364C108.365 4.64364 109.148 4.27843 109.148 3.28712C109.148 2.29582 108.417 1.9306 107.53 1.9306H105.548V4.59147H107.53V4.64364Z" fill="#C2C2C2"/>
<path d="M120.574 2.60886C120.574 3.70451 120 4.38278 119.113 4.69582C120.052 4.95669 120.939 5.63495 120.939 7.04364C120.939 9.18278 118.852 9.70451 117.183 9.70451H113.113V0.208862H117.287C119.322 0.208862 120.574 0.939297 120.574 2.60886ZM117.287 5.58278H115.148V8.03495H117.183C118.07 8.03495 118.904 7.82625 118.904 6.83495C118.904 5.79147 118.122 5.58278 117.287 5.58278ZM117.13 1.87843H115.2V4.06973H117.235C118.017 4.06973 118.539 3.70451 118.539 2.97408C118.539 2.19147 118.017 1.87843 117.13 1.87843Z" fill="#C2C2C2"/>
<path d="M124.487 9.70451H122.452V0.208862H124.487V9.70451Z" fill="#C2C2C2"/>
<path d="M128.557 7.87843H133.2V9.70451H126.522V0.208862H128.557V7.87843Z" fill="#C2C2C2"/>
<path d="M138.574 0C141.913 0 143.635 2.34783 143.635 4.95652C143.635 7.51304 141.965 9.91304 138.574 9.91304C135.183 9.91304 133.513 7.56522 133.513 4.95652C133.513 2.34783 135.235 0 138.574 0ZM138.574 1.87826C136.591 1.87826 135.6 3.28696 135.6 4.90435C135.6 6.57391 136.591 7.98261 138.574 7.98261C140.556 7.98261 141.548 6.57391 141.548 4.90435C141.548 3.28696 140.556 1.87826 138.574 1.87826Z" fill="#C2C2C2"/>
<path d="M143.739 0.208862H145.93L148.487 7.30451L151.043 0.208862H153.235L149.53 9.70451H147.443L143.739 0.208862Z" fill="#C2C2C2"/>
<path d="M56.5565 17.4785C56.5565 19.9307 54.7304 20.6611 52.4348 20.6611H50.8696V23.7915H48.8348V14.2959H52.4348C54.7826 14.2959 56.5565 15.0263 56.5565 17.4785ZM52.5391 16.0698H50.9217V18.8872H52.5391C53.5826 18.8872 54.4696 18.6263 54.4696 17.4785C54.4696 16.3307 53.5826 16.0698 52.5391 16.0698Z" fill="#C2C2C2"/>
<path d="M57.913 14.2959H61.8261C63.6522 14.2959 65.5826 14.9742 65.5826 17.3742C65.5826 18.9916 64.6435 19.8263 63.4956 20.1916L66.313 23.7915H63.9652L61.4087 20.4524H59.8956V23.7915H57.913V14.2959ZM61.9304 18.7307C62.7652 18.7307 63.5478 18.3655 63.5478 17.3742C63.5478 16.3829 62.8174 16.0176 61.9304 16.0176H59.9478V18.6785H61.9304V18.7307Z" fill="#C2C2C2"/>
<path d="M71.8956 14.0869C75.2348 14.0869 76.9565 16.4347 76.9565 19.0434C76.9565 21.6 75.287 24 71.8956 24C68.5043 24 66.8348 21.6521 66.8348 19.0434C66.8348 16.4347 68.5043 14.0869 71.8956 14.0869ZM71.8956 15.9652C69.913 15.9652 68.9217 17.3739 68.9217 18.9913C68.9217 20.6608 69.913 22.0695 71.8956 22.0695C73.8783 22.0695 74.8696 20.6608 74.8696 18.9913C74.8174 17.3739 73.8261 15.9652 71.8956 15.9652Z" fill="#C2C2C2"/>
<path d="M86.9739 19.0437C86.9739 21.8089 85.3565 23.7915 82.0174 23.7915H78.4695V14.2959H82.0174C85.3565 14.2959 86.9739 16.2785 86.9739 19.0437ZM81.9652 16.0698H80.4522V21.9655H81.9652C83.8435 21.9655 84.8869 20.9742 84.8869 18.9916C84.8869 17.0089 83.8956 16.0698 81.9652 16.0698Z" fill="#C2C2C2"/>
<path d="M96.7304 20.1916C96.7304 23.0089 94.6434 23.9481 92.5565 23.9481C90.4695 23.9481 88.3826 23.0089 88.3826 20.1916V14.2959H90.4174V20.1394C90.4174 21.6524 91.3043 22.1742 92.5565 22.1742C93.8087 22.1742 94.6956 21.6524 94.6956 20.1394V14.2959H96.7304V20.1916Z" fill="#C2C2C2"/>
<path d="M103.252 14.0869C104.191 14.0869 105.13 14.2956 105.965 14.713V16.6434C105.339 16.1739 104.452 15.913 103.565 15.913C101.896 15.913 100.226 16.8521 100.226 19.1478C100.226 21.2347 101.948 22.1739 103.565 22.1739C104.556 22.1739 105.443 21.913 106.017 21.3913V23.3739C105.183 23.7913 104.243 24 103.252 24C100.696 24 98.1391 22.4869 98.1391 19.1478C98.1391 15.6521 100.696 14.0869 103.252 14.0869Z" fill="#C2C2C2"/>
<path d="M114.574 16.122H111.652V23.7915H109.617V16.122H106.696V14.2959H114.574V16.122Z" fill="#C2C2C2"/>
<path d="M117.809 23.7915H115.774V14.2959H117.809V23.7915Z" fill="#C2C2C2"/>
<path d="M124.33 14.0869C127.67 14.0869 129.391 16.4347 129.391 19.0434C129.391 21.6 127.722 24 124.33 24C120.939 24 119.27 21.6521 119.27 19.0434C119.27 16.4347 120.991 14.0869 124.33 14.0869ZM124.33 15.9652C122.348 15.9652 121.356 17.3739 121.356 18.9913C121.356 20.6608 122.348 22.0695 124.33 22.0695C126.313 22.0695 127.304 20.6608 127.304 18.9913C127.304 17.3739 126.313 15.9652 124.33 15.9652Z" fill="#C2C2C2"/>
<path d="M130.904 14.2959H132.835L137.27 20.5046C137.217 20.0872 137.217 19.6176 137.217 19.2002V14.2959H139.252V23.7915H137.322L132.887 17.5829C132.939 18.0002 132.939 18.4698 132.939 18.8872V23.7915H130.904V14.2959Z" fill="#C2C2C2"/>
</svg>
