<svg width="40" height="40" viewBox="0 0 40 40" fill="none" xmlns="http://www.w3.org/2000/svg">
<g clip-path="url(#clip0_2_2707)">
<path d="M0 20C0 8.95431 8.95431 0 20 0C31.0457 0 40 8.95431 40 20C40 31.0457 31.0457 40 20 40C8.95431 40 0 31.0457 0 20Z" fill="white"/>
<path d="M10.2422 25L14.0778 21.2137L11.1113 18.2865L16.2376 13.2192L19.1989 16.1464L32.1161 3.38306L37.2372 8.44519L24.3252 21.2137L28.1556 25L41 12.3087V-1H0V14.8757L10.2422 25Z" fill="#9CC55F"/>
<path d="M33.2819 30.5891L28.1556 35.6297L23.0293 30.5891L19.1989 26.8227L15.3685 30.5891L10.2422 35.6297L5.1211 30.5891L0 25.5536V40H41V23L33.2819 30.5891Z" fill="#9CC55F"/>
</g>
<defs>
<clipPath id="clip0_2_2707">
<path d="M0 20C0 8.95431 8.95431 0 20 0C31.0457 0 40 8.95431 40 20C40 31.0457 31.0457 40 20 40C8.95431 40 0 31.0457 0 20Z" fill="white"/>
</clipPath>
</defs>
</svg>
